<svg width="85" height="85" viewBox="0 0 85 85" fill="none" xmlns="http://www.w3.org/2000/svg">
<path d="M45.4397 17.3393L45.3993 5.98285C45.3958 4.43259 44.1403 3.15384 42.5501 3.15384C40.9998 3.15738 39.7392 4.43461 39.721 6.00308L39.7433 17.3378C39.7468 18.8881 41.0023 20.1668 42.5925 20.1668C44.161 20.185 45.4215 18.9078 45.4397 17.3393V17.3393Z" fill="white"/>
<path d="M48.3321 0.705476L36.9757 0.778412C35.4255 0.786386 34.1503 2.04552 34.1549 3.63573C34.1629 5.18598 35.4437 6.44286 37.0122 6.45658L48.3469 6.4019C49.8971 6.39393 51.1722 5.13479 51.1677 3.54459C51.1814 1.97607 49.9006 0.719192 48.3321 0.705476V0.705476Z" fill="white"/>
<path d="M56.2063 53.6234L44.2709 46.54V30.4963C44.2709 29.0796 43.1375 27.9463 41.7209 27.9463H41.5084C40.0917 27.9463 38.9584 29.0796 38.9584 30.4963V47.213C38.9584 48.4525 39.5959 49.6213 40.6938 50.2588L53.6209 58.015C54.825 58.7234 56.3834 58.3692 57.0917 57.165C57.8355 55.9255 57.4459 54.3317 56.2063 53.6234V53.6234Z" fill="white"/>
<path d="M75.0125 17.3566L64.1042 8.28997C62.6167 7.05038 60.3855 7.22747 59.1105 8.75038C57.8709 10.2379 58.0834 12.4691 59.5709 13.7441L70.4438 22.8108C71.9313 24.0504 74.1625 23.8733 75.4375 22.3504C76.7125 20.8629 76.5 18.6316 75.0125 17.3566V17.3566Z" fill="white"/>
<path fill-rule="evenodd" clip-rule="evenodd" d="M10.625 45.6545C10.625 28.0525 24.8979 13.7795 42.5 13.7795C60.1021 13.7795 74.375 28.0525 74.375 45.6545C74.375 63.2566 60.1021 77.5295 42.5 77.5295C24.8979 77.5295 10.625 63.2566 10.625 45.6545ZM17.7084 45.6546C17.7084 59.3254 28.8292 70.4463 42.5 70.4463C56.1709 70.4463 67.2917 59.3254 67.2917 45.6546C67.2917 31.9837 56.1709 20.8629 42.5 20.8629C28.8292 20.8629 17.7084 31.9837 17.7084 45.6546Z" fill="white"/>
</svg>
