<svg width="113" height="110" viewBox="0 0 113 110" fill="none" xmlns="http://www.w3.org/2000/svg">
<rect width="113" height="110" fill="white"/>
<path d="M1.62236 69.9999L111.45 70C112.176 70 112.634 69.1917 112.33 68.5315C88.6615 17.0588 91.4381 67.0963 74.6696 28.3167C69.9642 17.435 64.2159 11.5417 60.2335 9C51.2731 14.0833 36.7635 40.7527 34.8458 46.6167C32.1908 54.7356 30.0545 42.0049 22.8987 42.1279C18.1994 42.2086 11.3354 47.8326 0.738172 68.5447C0.399096 69.2074 0.877933 69.9999 1.62236 69.9999Z" fill="#CD2500" stroke="black" stroke-linecap="round"/>
<path d="M0 69C0 68.4477 0.447715 68 1 68H112C112.552 68 113 68.4477 113 69V110H0V69Z" fill="#CD2500"/>
</svg>
