<svg width="113" height="110" viewBox="0 0 113 110" fill="none" xmlns="http://www.w3.org/2000/svg">
<rect width="113" height="110" fill="white"/>
<path d="M60.5029 8.57812C64.5864 11.1844 70.3928 17.1652 75.1289 28.1182C77.2195 32.953 78.9974 36.3855 80.5518 38.7969C82.1087 41.2123 83.4217 42.5718 84.5684 43.2998C86.8014 44.7174 88.4892 43.8267 90.7764 43.1826C91.8973 42.867 93.1322 42.6364 94.5342 42.9229C95.937 43.2095 97.4493 44.0013 99.1621 45.623C102.568 48.8478 106.865 55.4499 112.784 68.3223C112.802 68.3609 112.815 68.401 112.829 68.4404C112.937 68.6001 113 68.7927 113 69V110H0V69C3.35472e-07 68.7124 0.122068 68.4539 0.316406 68.2715C5.61264 57.9258 9.99364 51.3102 13.6592 47.2637C17.3228 43.2194 20.3353 41.672 22.8896 41.6279C24.8405 41.5944 26.4296 42.4408 27.7324 43.5361C29.0253 44.6231 30.0817 45.9964 30.9473 47.0547C31.3886 47.5943 31.7729 48.0427 32.123 48.3623C32.4853 48.6929 32.7344 48.812 32.9014 48.8242C33.0157 48.8325 33.1991 48.7978 33.4658 48.4473C33.7411 48.0854 34.0436 47.4594 34.3701 46.4609C35.3489 43.468 39.4838 35.292 44.4736 27.252C46.9734 23.2241 49.6991 19.2125 52.3662 15.8848C55.0223 12.5708 57.6585 9.88621 59.9863 8.56543L60.249 8.41699L60.5029 8.57812Z" fill="#CD2500"/>
</svg>
