<svg width="85" height="85" viewBox="0 0 85 85" fill="none" xmlns="http://www.w3.org/2000/svg">
<path d="M45.4397 17.3393L45.3993 5.98285C45.3958 4.43259 44.1403 3.15384 42.5501 3.15384C40.9998 3.15738 39.7392 4.43461 39.721 6.00308L39.7433 17.3378C39.7468 18.8881 41.0023 20.1668 42.5925 20.1668C44.161 20.185 45.4215 18.9078 45.4397 17.3393Z" fill="white"/>
<path d="M48.3321 0.705475L36.9757 0.778412C35.4255 0.786386 34.1503 2.04552 34.1549 3.63573C34.1629 5.18598 35.4437 6.44286 37.0122 6.45658L48.3469 6.4019C49.8971 6.39393 51.1722 5.13479 51.1677 3.54459C51.1814 1.97607 49.9006 0.719192 48.3321 0.705475Z" fill="white"/>
<path d="M75.0125 17.3566L64.1042 8.28997C62.6167 7.05038 60.3855 7.22747 59.1105 8.75038C57.8709 10.2379 58.0834 12.4691 59.5709 13.7441L70.4438 22.8108C71.9313 24.0504 74.1625 23.8733 75.4375 22.3504C76.7125 20.8629 76.5 18.6316 75.0125 17.3566Z" fill="white"/>
<path d="M42.5 13.7795C60.1021 13.7795 74.375 28.0525 74.375 45.6545C74.375 63.2566 60.1021 77.5295 42.5 77.5295C24.8979 77.5295 10.625 63.2566 10.625 45.6545C10.625 28.0525 24.8979 13.7795 42.5 13.7795ZM42.5 20.8625C28.8292 20.8626 17.708 31.9837 17.708 45.6545C17.708 59.3254 28.8292 70.4465 42.5 70.4465C56.1708 70.4465 67.292 59.3254 67.292 45.6545C67.292 31.9837 56.1708 20.8625 42.5 20.8625Z" fill="white"/>
<path d="M43.7422 27.5156C44.0374 27.525 44.4047 27.539 44.8125 27.5645C45.8276 27.6279 47.1512 27.7566 48.2422 28.0293L48.3613 28.0586C48.3754 28.0622 48.3895 28.0655 48.4033 28.0693L48.7666 28.1602L48.751 28.2041C49.3648 28.5142 49.6247 29.0884 49.7656 29.4502L49.7686 29.459L49.7725 29.4678C49.8533 29.7001 49.9025 29.9258 49.9355 30.1426C49.9679 30.1491 50.0012 30.1549 50.0352 30.1621C50.592 30.2802 51.3636 30.4815 52.2344 30.8164C53.9686 31.4835 56.1521 32.7021 57.8008 34.9004C59.4731 37.1306 59.875 39.6183 59.875 41.5C59.875 42.4449 59.7735 43.2542 59.6719 43.8301C59.6209 44.119 59.5689 44.351 59.5293 44.5137C59.511 44.5888 59.4946 44.6493 59.4824 44.6943C59.4818 44.6989 59.4823 44.704 59.4814 44.709C59.4669 44.7961 59.442 44.8967 59.4023 45.0078C59.3218 45.2333 59.1828 45.4924 58.9551 45.7656C58.5035 46.3073 57.7191 46.8885 56.3711 47.4277C55.2888 47.8607 54.4978 48.0513 53.9092 48.1055C53.7599 50.2622 53.8529 52.4067 53.9951 54.6621C54.1465 57.064 54.3511 59.5968 54.3535 62.3535V62.6758L54.0605 62.8086C50.994 64.2015 48.3587 63.9974 45.7461 64.3145L45.7354 64.3164H45.7256C45.049 64.3701 44.3679 64.4156 43.6895 64.457L43.6865 64.5264L43.1865 64.498C43.1685 64.497 43.1509 64.4961 43.1357 64.4951C43.1308 64.4948 43.1256 64.4944 43.1211 64.4941C43.1167 64.4944 43.1122 64.4948 43.1074 64.4951C43.0922 64.4961 43.0739 64.497 43.0557 64.498L42.5557 64.5264L42.5518 64.457C41.8736 64.4156 41.1929 64.3701 40.5166 64.3164H40.5068L40.4961 64.3145C37.8835 63.9974 35.2481 64.2015 32.1816 62.8086L31.8887 62.6758V62.3535C31.8911 59.5923 32.0958 57.0559 32.2471 54.6504C32.3883 52.4047 32.4795 50.2688 32.332 48.1211C31.7231 48.1024 30.8667 47.9228 29.6289 47.4277C28.2809 46.8885 27.4965 46.3073 27.0449 45.7656C26.8172 45.4924 26.6782 45.2333 26.5977 45.0078C26.558 44.8967 26.5331 44.7961 26.5186 44.709C26.5177 44.704 26.5182 44.6989 26.5176 44.6943C26.5054 44.6493 26.489 44.5888 26.4707 44.5137C26.4311 44.351 26.3791 44.119 26.3281 43.8301C26.2265 43.2542 26.125 42.4449 26.125 41.5C26.125 39.6183 26.5269 37.1306 28.1992 34.9004C29.8479 32.7021 32.0314 31.4835 33.7656 30.8164C34.6364 30.4815 35.408 30.2802 35.9648 30.1621C36.0925 30.135 36.2091 30.1117 36.3135 30.0928C36.347 29.8911 36.3951 29.6822 36.4697 29.4678L36.4736 29.459L36.4766 29.4502C36.6174 29.0886 36.8769 28.5143 37.4902 28.2041L37.4756 28.1602L37.8379 28.0693C37.8517 28.0655 37.8658 28.0622 37.8799 28.0586L38 28.0293C39.0909 27.7566 40.4147 27.6279 41.4297 27.5645C41.8374 27.539 42.2048 27.525 42.5 27.5156V27.5H43.7422V27.5156ZM51.8398 49.3213C48.9626 50.0247 46.4718 50.4211 44 50.4873V62.4336C44.521 62.4 45.0421 62.3643 45.5596 62.3232L47.5479 62.1465C48.2201 62.0861 48.8954 62.0211 49.5537 61.9385C50.704 61.794 51.7585 61.6009 52.6035 61.3135C52.1908 57.8799 51.6759 53.5701 51.8398 49.3213ZM34.3984 49.2578C34.5701 53.5274 34.0514 57.8627 33.6367 61.3135C34.482 61.6012 35.5375 61.793 36.6885 61.9375C38.0049 62.1028 39.3885 62.2008 40.6826 62.3232H40.6816C41.1191 62.358 41.5594 62.3857 42 62.415V50.4697C39.6156 50.3637 37.1909 49.953 34.3984 49.2578ZM36.3789 32.1191C35.9047 32.2198 35.2383 32.3936 34.4844 32.6836C32.9689 33.2665 31.1519 34.2984 29.8008 36.0996C28.4734 37.8694 28.125 39.882 28.125 41.5C28.125 42.3052 28.211 42.996 28.2969 43.4824C28.3397 43.7254 28.3816 43.9156 28.4121 44.041C28.4169 44.0608 28.4216 44.0791 28.4258 44.0957L29.1865 44.8564H29.001C29.2847 45.0602 29.7165 45.3104 30.3711 45.5723C31.2178 45.911 31.7747 46.046 32.1191 46.0967C32.0275 45.4724 31.9119 44.8446 31.7646 44.2109L31.7637 44.207C31.0732 41.133 31.6974 37.4557 34.1465 35.1133L34.3936 34.877C35.2666 34.0656 36.2426 33.4137 37.2803 32.8975C37.1217 32.8016 36.9769 32.6832 36.8525 32.5557C36.7214 32.4212 36.6016 32.2649 36.5039 32.0947C36.4641 32.1027 36.4221 32.11 36.3789 32.1191ZM49.71 32.1396C49.6128 32.3 49.4964 32.4476 49.3691 32.5752C49.2494 32.6953 49.1109 32.8063 48.96 32.8975C50.097 33.4629 51.161 34.1907 52.0957 35.1133H52.0947C54.5442 37.4557 55.169 41.1327 54.4785 44.207L54.4775 44.2109C54.3338 44.8297 54.2177 45.4423 54.127 46.0518C54.4721 45.9791 54.9603 45.8397 55.6289 45.5723C56.2835 45.3104 56.7153 45.0602 56.999 44.8564H56.8135L57.5732 44.0957C57.5774 44.0791 57.583 44.0609 57.5879 44.041C57.6184 43.9156 57.6603 43.7254 57.7031 43.4824C57.789 42.996 57.875 42.3052 57.875 41.5C57.875 39.882 57.5266 37.8694 56.1992 36.0996C54.8481 34.2984 53.0311 33.2665 51.5156 32.6836C50.8078 32.4114 50.1769 32.2427 49.71 32.1396ZM26.5117 44.6572C26.5115 44.6553 26.5118 44.6533 26.5117 44.6523C26.5116 44.651 26.5108 44.6506 26.5107 44.6504L26.5117 44.6572ZM59.4883 44.6523C59.4882 44.6533 59.4885 44.6553 59.4883 44.6572C59.4888 44.6532 59.4893 44.6504 59.4893 44.6504C59.4892 44.6506 59.4884 44.651 59.4883 44.6523ZM41.8311 33.5C39.5177 33.9179 37.1823 34.9083 35.5605 36.5273L35.5537 36.5342C34.4818 37.5666 33.847 38.923 33.6084 40.3975C35.7335 41.2595 38.765 41.6759 42 41.6895V33.5H41.8311ZM44 41.6475C47.1916 41.5033 50.3018 40.9945 52.6045 40.2461C52.3479 38.8302 51.7234 37.531 50.6885 36.5342L50.6816 36.5273C49.0599 34.9083 46.7245 33.9179 44.4111 33.5H44V41.6475ZM42.7676 29.5078C42.4645 29.5154 42.0394 29.5302 41.5547 29.5605C40.6607 29.6164 39.6087 29.7222 38.7422 29.9111V31.0137L38.29 30.4033C38.2594 30.5769 38.2423 30.7782 38.2422 31C38.2423 31.0369 38.2437 31.0622 38.2461 31.085C38.251 31.115 38.2563 31.1352 38.2598 31.1484C38.2765 31.1575 38.3037 31.1703 38.3477 31.1875C38.5505 31.2569 38.8702 31.2855 39.2695 31.293H39.2773C39.9447 31.3162 40.8879 31.2128 41.8838 31.5H44.3584C45.3543 31.2129 46.2975 31.3162 46.9648 31.293H46.9727C47.3715 31.2855 47.6907 31.2567 47.8936 31.1875C47.9373 31.1704 47.9645 31.1575 47.9814 31.1484C47.9849 31.1353 47.9902 31.1151 47.9951 31.085C47.9975 31.0622 47.9999 31.0369 48 31C47.9999 30.7782 47.9819 30.5769 47.9512 30.4033L47.5 31.0137V29.9111C46.6335 29.7222 45.5815 29.6164 44.6875 29.5605C44.2027 29.5302 43.7777 29.5154 43.4746 29.5078C43.3232 29.504 43.2025 29.5019 43.1211 29.501L42.7676 29.5078Z" fill="white"/>
</svg>
