<svg width="192" height="192" viewBox="0 0 192 192" fill="none" xmlns="http://www.w3.org/2000/svg">
<rect width="192" height="192" rx="30" fill="#E6D600"/>
<path d="M69.0176 123.318C66.6152 123.318 64.0664 122.967 61.3711 122.264C58.7051 121.59 56.083 120.491 53.5049 118.968C50.9268 117.415 48.583 115.379 46.4736 112.859C44.3936 110.34 42.7236 107.278 41.4639 103.675C40.2041 100.071 39.5742 95.8379 39.5742 90.9746C39.5742 86.1406 40.2041 81.9219 41.4639 78.3184C42.7529 74.6855 44.4668 71.5947 46.6055 69.0459C48.7734 66.4971 51.1904 64.4316 53.8564 62.8496C56.5518 61.2676 59.3057 60.125 62.1182 59.4219C64.96 58.6895 67.6846 58.3232 70.292 58.3232C75.9756 58.3232 80.3555 58.8066 83.4316 59.7734C86.5371 60.7109 88.8662 61.5166 90.4189 62.1904L91.3857 75.8135C91.4443 76.3115 91.2832 76.7363 90.9023 77.0879C90.5215 77.4102 90.1553 77.5713 89.8037 77.5713C89.7158 77.5713 89.6279 77.5859 89.54 77.6152C89.4814 77.6152 89.4082 77.6152 89.3203 77.6152C88.9395 77.6152 88.5879 77.5273 88.2656 77.3516C87.9434 77.1465 87.7529 76.8096 87.6943 76.3408C87.0205 73.8799 85.9512 71.6094 84.4863 69.5293C83.0215 67.4492 81.1172 65.7793 78.7734 64.5195C76.4297 63.2305 73.5732 62.5713 70.2041 62.542C68.8564 62.542 67.3184 62.7617 65.5898 63.2012C63.8906 63.6113 62.1621 64.3877 60.4043 65.5303C58.6465 66.6729 57.0205 68.3135 55.5264 70.4521C54.0322 72.5615 52.8164 75.3008 51.8789 78.6699C50.9707 82.0098 50.5166 86.1113 50.5166 90.9746C50.5166 96.3359 51.2197 100.833 52.626 104.466C54.0322 108.069 55.8193 110.955 57.9873 113.123C60.1553 115.262 62.3965 116.8 64.7109 117.737C67.0547 118.675 69.1641 119.144 71.0391 119.144C74.0859 119.144 76.4736 118.851 78.2021 118.265C79.96 117.679 81.1904 116.932 81.8936 116.023C82.626 115.115 82.9922 114.192 82.9922 113.255V101.961C82.9922 100.701 82.5674 99.793 81.7178 99.2363C80.8975 98.6504 79.8721 98.2695 78.6416 98.0938C77.4404 97.8887 76.2686 97.7568 75.126 97.6982C74.5107 97.6396 74.0859 97.5225 73.8516 97.3467C73.6465 97.1416 73.5439 96.7168 73.5439 96.0723C73.5439 95.75 73.6611 95.2959 73.8955 94.71C74.1592 94.124 74.54 93.8311 75.0381 93.8311H97.6699C98.168 93.8311 98.5342 94.124 98.7686 94.71C99.0322 95.2959 99.1641 95.75 99.1641 96.0723C99.1641 97.0684 98.6807 97.6104 97.7139 97.6982C96.4248 97.8154 95.1357 98.0791 93.8467 98.4893C92.5576 98.8701 91.9131 99.5439 91.9131 100.511L92.2207 116.595C91.752 117.239 90.5947 118.104 88.749 119.188C86.9033 120.242 84.3398 121.194 81.0586 122.044C77.7773 122.894 73.7637 123.318 69.0176 123.318ZM107.294 122C106.796 122 106.415 121.707 106.151 121.121C105.917 120.535 105.8 120.081 105.8 119.759C105.8 118.792 106.283 118.25 107.25 118.133C108.656 118.016 110.062 117.767 111.469 117.386C112.904 116.976 113.622 116.287 113.622 115.32L113.666 67.7715C113.666 66.5117 113.285 65.6035 112.523 65.0469C111.791 64.4902 110.912 64.124 109.887 63.9482C108.861 63.7432 107.895 63.5967 106.986 63.5088C106.371 63.4502 105.946 63.333 105.712 63.1572C105.507 62.9521 105.404 62.5273 105.404 61.8828C105.404 61.5605 105.521 61.1064 105.756 60.5205C106.02 59.9346 106.4 59.6416 106.898 59.6416H116.698C119.599 59.6416 122.147 59.5537 124.345 59.3779C126.542 59.2021 129.149 59.1143 132.167 59.1143C135.624 59.1143 138.935 59.7148 142.099 60.916C145.292 62.0879 147.914 64.0215 149.965 66.7168C152.016 69.4121 153.041 73.0449 153.041 77.6152C153.041 81.541 152.06 85.0127 150.097 88.0303C148.163 91.0186 145.482 93.3623 142.055 95.0615C138.656 96.7607 134.76 97.6104 130.365 97.6104H122.719V113.87C122.719 115.13 123.217 116.053 124.213 116.639C125.238 117.195 126.439 117.562 127.816 117.737C129.223 117.913 130.482 118.045 131.596 118.133C132.211 118.191 132.621 118.309 132.826 118.484C133.061 118.66 133.178 119.085 133.178 119.759C133.178 120.081 133.046 120.535 132.782 121.121C132.548 121.707 132.182 122 131.684 122H107.294ZM122.719 93.8311H130.233C131.054 93.8311 132.167 93.582 133.573 93.084C134.979 92.5859 136.4 91.7656 137.836 90.623C139.301 89.4512 140.531 87.8838 141.527 85.9209C142.523 83.9287 143.021 81.4678 143.021 78.5381C143.021 74.4951 142.318 71.3457 140.912 69.0898C139.506 66.834 137.719 65.2666 135.551 64.3877C133.383 63.4795 131.127 63.0254 128.783 63.0254H122.763L122.719 93.8311Z" fill="#3C3A28"/>
</svg>
